<?xml version="1.0" encoding="UTF-8" standalone="no"?>
<!DOCTYPE svg PUBLIC "-//W3C//DTD SVG 1.1//EN"
 "http://www.w3.org/Graphics/SVG/1.1/DTD/svg11.dtd">
<!-- Generated by graphviz version 2.47.1 (20210511.0111)
 -->
<!-- Pages: 1 -->
<svg width="741pt" height="873pt"
 viewBox="0.00 0.00 741.02 873.26" xmlns="http://www.w3.org/2000/svg" xmlns:xlink="http://www.w3.org/1999/xlink">
<g id="graph0" class="graph" transform="scale(1 1) rotate(0) translate(4 869.26)">
<polygon fill="white" stroke="transparent" points="-4,4 -4,-869.26 737.02,-869.26 737.02,4 -4,4"/>
<!-- &#45;7889628665610189221 -->
<g id="node1" class="node">
<title>&#45;7889628665610189221</title>
<ellipse fill="none" stroke="black" cx="76.51" cy="-765.96" rx="27.1" ry="27.1"/>
<text text-anchor="middle" x="76.51" y="-762.26" font-family="Times-Roman" font-size="14.00">sub</text>
</g>
<!-- 8338166541802382420 -->
<g id="node2" class="node">
<title>8338166541802382420</title>
<polygon fill="none" stroke="black" points="103.51,-865.26 49.51,-865.26 49.51,-829.26 103.51,-829.26 103.51,-865.26"/>
<text text-anchor="middle" x="76.51" y="-843.56" font-family="Times-Roman" font-size="14.00">(0, 0)</text>
</g>
<!-- &#45;7889628665610189221&#45;&gt;8338166541802382420 -->
<g id="edge1" class="edge">
<title>&#45;7889628665610189221&#45;&gt;8338166541802382420</title>
<path fill="none" stroke="black" d="M76.51,-793.37C76.51,-801.51 76.51,-810.5 76.51,-818.72"/>
<polygon fill="black" stroke="black" points="73.01,-818.94 76.51,-828.94 80.01,-818.95 73.01,-818.94"/>
</g>
<!-- 5438060699446388189 -->
<g id="node3" class="node">
<title>5438060699446388189</title>
<polygon fill="none" stroke="black" points="76.51,-136.99 22.51,-136.99 22.51,-100.99 76.51,-100.99 76.51,-136.99"/>
<text text-anchor="middle" x="49.51" y="-115.29" font-family="Times-Roman" font-size="14.00">(0, 0)</text>
</g>
<!-- 5438060699446388189&#45;&gt;&#45;7889628665610189221 -->
<g id="edge2" class="edge">
<title>5438060699446388189&#45;&gt;&#45;7889628665610189221</title>
<path fill="none" stroke="black" d="M37.69,-137.35C31.5,-147.33 24.42,-160.37 20.51,-172.99 -4.53,-253.85 1.51,-277.84 1.51,-362.48 1.51,-362.48 1.51,-362.48 1.51,-525.07 1.51,-602.27 37.33,-687.34 59.46,-732.53"/>
<polygon fill="black" stroke="black" points="56.36,-734.16 63.96,-741.55 62.63,-731.04 56.36,-734.16"/>
</g>
<!-- 5630963048050890742 -->
<g id="node18" class="node">
<title>5630963048050890742</title>
<ellipse fill="none" stroke="black" cx="97.51" cy="-241.24" rx="68.49" ry="68.49"/>
<text text-anchor="middle" x="97.51" y="-237.54" font-family="Times-Roman" font-size="14.00">mean_chunk</text>
</g>
<!-- 5438060699446388189&#45;&gt;5630963048050890742 -->
<g id="edge18" class="edge">
<title>5438060699446388189&#45;&gt;5630963048050890742</title>
<path fill="none" stroke="black" d="M56.39,-137.22C59.78,-145.73 64.13,-156.62 68.72,-168.13"/>
<polygon fill="black" stroke="black" points="65.49,-169.47 72.45,-177.46 71.99,-166.87 65.49,-169.47"/>
</g>
<!-- &#45;4296503294335477722 -->
<g id="node4" class="node">
<title>&#45;4296503294335477722</title>
<polygon fill="none" stroke="black" points="393.51,-702.66 339.51,-702.66 339.51,-666.66 393.51,-666.66 393.51,-702.66"/>
<text text-anchor="middle" x="366.51" y="-680.96" font-family="Times-Roman" font-size="14.00">()</text>
</g>
<!-- &#45;4296503294335477722&#45;&gt;&#45;7889628665610189221 -->
<g id="edge3" class="edge">
<title>&#45;4296503294335477722&#45;&gt;&#45;7889628665610189221</title>
<path fill="none" stroke="black" d="M339.49,-693.05C287.09,-707.38 171.67,-738.94 112.71,-755.06"/>
<polygon fill="black" stroke="black" points="111.45,-751.78 102.73,-757.79 113.3,-758.53 111.45,-751.78"/>
</g>
<!-- &#45;3650309493171296613 -->
<g id="node5" class="node">
<title>&#45;3650309493171296613</title>
<ellipse fill="none" stroke="black" cx="314.51" cy="-765.96" rx="27.1" ry="27.1"/>
<text text-anchor="middle" x="314.51" y="-762.26" font-family="Times-Roman" font-size="14.00">sub</text>
</g>
<!-- &#45;4296503294335477722&#45;&gt;&#45;3650309493171296613 -->
<g id="edge5" class="edge">
<title>&#45;4296503294335477722&#45;&gt;&#45;3650309493171296613</title>
<path fill="none" stroke="black" d="M355.23,-702.87C349.25,-711.98 341.73,-723.45 334.79,-734.04"/>
<polygon fill="black" stroke="black" points="331.69,-732.38 329.13,-742.66 337.54,-736.22 331.69,-732.38"/>
</g>
<!-- 3401133688670037163 -->
<g id="node8" class="node">
<title>3401133688670037163</title>
<ellipse fill="none" stroke="black" cx="566.51" cy="-765.96" rx="27.1" ry="27.1"/>
<text text-anchor="middle" x="566.51" y="-762.26" font-family="Times-Roman" font-size="14.00">sub</text>
</g>
<!-- &#45;4296503294335477722&#45;&gt;3401133688670037163 -->
<g id="edge9" class="edge">
<title>&#45;4296503294335477722&#45;&gt;3401133688670037163</title>
<path fill="none" stroke="black" d="M393.9,-696.52C429.8,-710.76 492.78,-735.73 531.93,-751.25"/>
<polygon fill="black" stroke="black" points="530.75,-754.55 541.34,-754.98 533.33,-748.04 530.75,-754.55"/>
</g>
<!-- 3242095478124561643 -->
<g id="node11" class="node">
<title>3242095478124561643</title>
<ellipse fill="none" stroke="black" cx="418.51" cy="-765.96" rx="27.1" ry="27.1"/>
<text text-anchor="middle" x="418.51" y="-762.26" font-family="Times-Roman" font-size="14.00">sub</text>
</g>
<!-- &#45;4296503294335477722&#45;&gt;3242095478124561643 -->
<g id="edge12" class="edge">
<title>&#45;4296503294335477722&#45;&gt;3242095478124561643</title>
<path fill="none" stroke="black" d="M377.79,-702.87C383.77,-711.98 391.29,-723.45 398.23,-734.04"/>
<polygon fill="black" stroke="black" points="395.48,-736.22 403.89,-742.66 401.33,-732.38 395.48,-736.22"/>
</g>
<!-- 3445092512829686054 -->
<g id="node6" class="node">
<title>3445092512829686054</title>
<polygon fill="none" stroke="black" points="341.51,-865.26 287.51,-865.26 287.51,-829.26 341.51,-829.26 341.51,-865.26"/>
<text text-anchor="middle" x="314.51" y="-843.56" font-family="Times-Roman" font-size="14.00">(0, 1)</text>
</g>
<!-- &#45;3650309493171296613&#45;&gt;3445092512829686054 -->
<g id="edge4" class="edge">
<title>&#45;3650309493171296613&#45;&gt;3445092512829686054</title>
<path fill="none" stroke="black" d="M314.51,-793.37C314.51,-801.51 314.51,-810.5 314.51,-818.72"/>
<polygon fill="black" stroke="black" points="311.01,-818.94 314.51,-828.94 318.01,-818.95 311.01,-818.94"/>
</g>
<!-- &#45;6501042618161165002 -->
<g id="node7" class="node">
<title>&#45;6501042618161165002</title>
<polygon fill="none" stroke="black" points="268.51,-136.99 214.51,-136.99 214.51,-100.99 268.51,-100.99 268.51,-136.99"/>
<text text-anchor="middle" x="241.51" y="-115.29" font-family="Times-Roman" font-size="14.00">(0, 1)</text>
</g>
<!-- &#45;6501042618161165002&#45;&gt;&#45;3650309493171296613 -->
<g id="edge6" class="edge">
<title>&#45;6501042618161165002&#45;&gt;&#45;3650309493171296613</title>
<path fill="none" stroke="black" d="M229.69,-137.35C223.5,-147.33 216.42,-160.37 212.51,-172.99 187.47,-253.85 193.51,-277.84 193.51,-362.48 193.51,-362.48 193.51,-362.48 193.51,-525.07 193.51,-609.87 254.52,-695.2 289.9,-737.55"/>
<polygon fill="black" stroke="black" points="287.25,-739.84 296.39,-745.19 292.58,-735.3 287.25,-739.84"/>
</g>
<!-- 5471924837505415222 -->
<g id="node20" class="node">
<title>5471924837505415222</title>
<ellipse fill="none" stroke="black" cx="289.51" cy="-241.24" rx="68.49" ry="68.49"/>
<text text-anchor="middle" x="289.51" y="-237.54" font-family="Times-Roman" font-size="14.00">mean_chunk</text>
</g>
<!-- &#45;6501042618161165002&#45;&gt;5471924837505415222 -->
<g id="edge20" class="edge">
<title>&#45;6501042618161165002&#45;&gt;5471924837505415222</title>
<path fill="none" stroke="black" d="M248.39,-137.22C251.78,-145.73 256.13,-156.62 260.72,-168.13"/>
<polygon fill="black" stroke="black" points="257.49,-169.47 264.45,-177.46 263.99,-166.87 257.49,-169.47"/>
</g>
<!-- 5901108695062136727 -->
<g id="node9" class="node">
<title>5901108695062136727</title>
<polygon fill="none" stroke="black" points="593.51,-865.26 539.51,-865.26 539.51,-829.26 593.51,-829.26 593.51,-865.26"/>
<text text-anchor="middle" x="566.51" y="-843.56" font-family="Times-Roman" font-size="14.00">(1, 0)</text>
</g>
<!-- 3401133688670037163&#45;&gt;5901108695062136727 -->
<g id="edge7" class="edge">
<title>3401133688670037163&#45;&gt;5901108695062136727</title>
<path fill="none" stroke="black" d="M566.51,-793.37C566.51,-801.51 566.51,-810.5 566.51,-818.72"/>
<polygon fill="black" stroke="black" points="563.01,-818.94 566.51,-828.94 570.01,-818.95 563.01,-818.94"/>
</g>
<!-- &#45;3158534722298775375 -->
<g id="node10" class="node">
<title>&#45;3158534722298775375</title>
<polygon fill="none" stroke="black" points="710.51,-136.99 656.51,-136.99 656.51,-100.99 710.51,-100.99 710.51,-136.99"/>
<text text-anchor="middle" x="683.51" y="-115.29" font-family="Times-Roman" font-size="14.00">(1, 0)</text>
</g>
<!-- &#45;3158534722298775375&#45;&gt;3401133688670037163 -->
<g id="edge8" class="edge">
<title>&#45;3158534722298775375&#45;&gt;3401133688670037163</title>
<path fill="none" stroke="black" d="M695.32,-137.35C701.51,-147.33 708.6,-160.37 712.51,-172.99 737.55,-253.85 731.51,-277.84 731.51,-362.48 731.51,-362.48 731.51,-362.48 731.51,-525.07 731.51,-619.49 643.67,-703.83 596.17,-742.54"/>
<polygon fill="black" stroke="black" points="593.7,-740.03 588.08,-749.01 598.08,-745.5 593.7,-740.03"/>
</g>
<!-- &#45;5923376054362802618 -->
<g id="node22" class="node">
<title>&#45;5923376054362802618</title>
<ellipse fill="none" stroke="black" cx="635.51" cy="-241.24" rx="68.49" ry="68.49"/>
<text text-anchor="middle" x="635.51" y="-237.54" font-family="Times-Roman" font-size="14.00">mean_chunk</text>
</g>
<!-- &#45;3158534722298775375&#45;&gt;&#45;5923376054362802618 -->
<g id="edge22" class="edge">
<title>&#45;3158534722298775375&#45;&gt;&#45;5923376054362802618</title>
<path fill="none" stroke="black" d="M676.63,-137.22C673.24,-145.73 668.89,-156.62 664.29,-168.13"/>
<polygon fill="black" stroke="black" points="661.03,-166.87 660.57,-177.46 667.53,-169.47 661.03,-166.87"/>
</g>
<!-- 1008034666089440361 -->
<g id="node12" class="node">
<title>1008034666089440361</title>
<polygon fill="none" stroke="black" points="445.51,-865.26 391.51,-865.26 391.51,-829.26 445.51,-829.26 445.51,-865.26"/>
<text text-anchor="middle" x="418.51" y="-843.56" font-family="Times-Roman" font-size="14.00">(1, 1)</text>
</g>
<!-- 3242095478124561643&#45;&gt;1008034666089440361 -->
<g id="edge10" class="edge">
<title>3242095478124561643&#45;&gt;1008034666089440361</title>
<path fill="none" stroke="black" d="M418.51,-793.37C418.51,-801.51 418.51,-810.5 418.51,-818.72"/>
<polygon fill="black" stroke="black" points="415.01,-818.94 418.51,-828.94 422.01,-818.95 415.01,-818.94"/>
</g>
<!-- 3349106033803223050 -->
<g id="node13" class="node">
<title>3349106033803223050</title>
<polygon fill="none" stroke="black" points="518.51,-136.99 464.51,-136.99 464.51,-100.99 518.51,-100.99 518.51,-136.99"/>
<text text-anchor="middle" x="491.51" y="-115.29" font-family="Times-Roman" font-size="14.00">(1, 1)</text>
</g>
<!-- 3349106033803223050&#45;&gt;3242095478124561643 -->
<g id="edge11" class="edge">
<title>3349106033803223050&#45;&gt;3242095478124561643</title>
<path fill="none" stroke="black" d="M503.32,-137.35C509.51,-147.33 516.6,-160.37 520.51,-172.99 545.55,-253.85 539.51,-277.84 539.51,-362.48 539.51,-362.48 539.51,-362.48 539.51,-525.07 539.51,-609.87 478.5,-695.2 443.12,-737.55"/>
<polygon fill="black" stroke="black" points="440.44,-735.3 436.62,-745.19 445.77,-739.84 440.44,-735.3"/>
</g>
<!-- &#45;1684056881923910010 -->
<g id="node24" class="node">
<title>&#45;1684056881923910010</title>
<ellipse fill="none" stroke="black" cx="443.51" cy="-241.24" rx="68.49" ry="68.49"/>
<text text-anchor="middle" x="443.51" y="-237.54" font-family="Times-Roman" font-size="14.00">mean_chunk</text>
</g>
<!-- 3349106033803223050&#45;&gt;&#45;1684056881923910010 -->
<g id="edge24" class="edge">
<title>3349106033803223050&#45;&gt;&#45;1684056881923910010</title>
<path fill="none" stroke="black" d="M484.63,-137.22C481.24,-145.73 476.89,-156.62 472.29,-168.13"/>
<polygon fill="black" stroke="black" points="469.03,-166.87 468.57,-177.46 475.53,-169.47 469.03,-166.87"/>
</g>
<!-- 2055942940966349550 -->
<g id="node14" class="node">
<title>2055942940966349550</title>
<ellipse fill="none" stroke="black" cx="49.51" cy="-32.5" rx="32.49" ry="32.49"/>
<text text-anchor="middle" x="49.51" y="-28.8" font-family="Times-Roman" font-size="14.00">ones</text>
</g>
<!-- 2055942940966349550&#45;&gt;5438060699446388189 -->
<g id="edge13" class="edge">
<title>2055942940966349550&#45;&gt;5438060699446388189</title>
<path fill="none" stroke="black" d="M49.51,-65.44C49.51,-73.67 49.51,-82.45 49.51,-90.43"/>
<polygon fill="black" stroke="black" points="46.01,-90.69 49.51,-100.69 53.01,-90.69 46.01,-90.69"/>
</g>
<!-- 1251816035817776508 -->
<g id="node15" class="node">
<title>1251816035817776508</title>
<ellipse fill="none" stroke="black" cx="241.51" cy="-32.5" rx="32.49" ry="32.49"/>
<text text-anchor="middle" x="241.51" y="-28.8" font-family="Times-Roman" font-size="14.00">ones</text>
</g>
<!-- 1251816035817776508&#45;&gt;&#45;6501042618161165002 -->
<g id="edge14" class="edge">
<title>1251816035817776508&#45;&gt;&#45;6501042618161165002</title>
<path fill="none" stroke="black" d="M241.51,-65.44C241.51,-73.67 241.51,-82.45 241.51,-90.43"/>
<polygon fill="black" stroke="black" points="238.01,-90.69 241.51,-100.69 245.01,-90.69 238.01,-90.69"/>
</g>
<!-- &#45;1020665167456979492 -->
<g id="node16" class="node">
<title>&#45;1020665167456979492</title>
<ellipse fill="none" stroke="black" cx="683.51" cy="-32.5" rx="32.49" ry="32.49"/>
<text text-anchor="middle" x="683.51" y="-28.8" font-family="Times-Roman" font-size="14.00">ones</text>
</g>
<!-- &#45;1020665167456979492&#45;&gt;&#45;3158534722298775375 -->
<g id="edge15" class="edge">
<title>&#45;1020665167456979492&#45;&gt;&#45;3158534722298775375</title>
<path fill="none" stroke="black" d="M683.51,-65.44C683.51,-73.67 683.51,-82.45 683.51,-90.43"/>
<polygon fill="black" stroke="black" points="680.01,-90.69 683.51,-100.69 687.01,-90.69 680.01,-90.69"/>
</g>
<!-- 3905783125202270168 -->
<g id="node17" class="node">
<title>3905783125202270168</title>
<ellipse fill="none" stroke="black" cx="491.51" cy="-32.5" rx="32.49" ry="32.49"/>
<text text-anchor="middle" x="491.51" y="-28.8" font-family="Times-Roman" font-size="14.00">ones</text>
</g>
<!-- 3905783125202270168&#45;&gt;3349106033803223050 -->
<g id="edge16" class="edge">
<title>3905783125202270168&#45;&gt;3349106033803223050</title>
<path fill="none" stroke="black" d="M491.51,-65.44C491.51,-73.67 491.51,-82.45 491.51,-90.43"/>
<polygon fill="black" stroke="black" points="488.01,-90.69 491.51,-100.69 495.01,-90.69 488.01,-90.69"/>
</g>
<!-- 5090887076357553869 -->
<g id="node19" class="node">
<title>5090887076357553869</title>
<polygon fill="none" stroke="black" points="144.51,-381.48 90.51,-381.48 90.51,-345.48 144.51,-345.48 144.51,-381.48"/>
<text text-anchor="middle" x="117.51" y="-359.78" font-family="Times-Roman" font-size="14.00">(0, 0)</text>
</g>
<!-- 5630963048050890742&#45;&gt;5090887076357553869 -->
<g id="edge17" class="edge">
<title>5630963048050890742&#45;&gt;5090887076357553869</title>
<path fill="none" stroke="black" d="M108.56,-308.69C110.1,-317.95 111.61,-327.01 112.93,-334.97"/>
<polygon fill="black" stroke="black" points="109.52,-335.78 114.61,-345.07 116.42,-334.63 109.52,-335.78"/>
</g>
<!-- 3167338141571416244 -->
<g id="node26" class="node">
<title>3167338141571416244</title>
<ellipse fill="none" stroke="black" cx="366.51" cy="-524.07" rx="106.68" ry="106.68"/>
<text text-anchor="middle" x="366.51" y="-520.37" font-family="Times-Roman" font-size="14.00">mean_agg&#45;aggregate</text>
</g>
<!-- 5090887076357553869&#45;&gt;3167338141571416244 -->
<g id="edge28" class="edge">
<title>5090887076357553869&#45;&gt;3167338141571416244</title>
<path fill="none" stroke="black" d="M144.63,-381.76C174.35,-400.69 223.76,-432.15 268.42,-460.6"/>
<polygon fill="black" stroke="black" points="266.67,-463.63 276.98,-466.05 270.43,-457.73 266.67,-463.63"/>
</g>
<!-- 197813047384857503 -->
<g id="node21" class="node">
<title>197813047384857503</title>
<polygon fill="none" stroke="black" points="347.51,-381.48 293.51,-381.48 293.51,-345.48 347.51,-345.48 347.51,-381.48"/>
<text text-anchor="middle" x="320.51" y="-359.78" font-family="Times-Roman" font-size="14.00">(0, 1)</text>
</g>
<!-- 5471924837505415222&#45;&gt;197813047384857503 -->
<g id="edge19" class="edge">
<title>5471924837505415222&#45;&gt;197813047384857503</title>
<path fill="none" stroke="black" d="M306.37,-307.64C308.89,-317.4 311.35,-326.97 313.51,-335.32"/>
<polygon fill="black" stroke="black" points="310.16,-336.35 316.04,-345.16 316.94,-334.6 310.16,-336.35"/>
</g>
<!-- 197813047384857503&#45;&gt;3167338141571416244 -->
<g id="edge29" class="edge">
<title>197813047384857503&#45;&gt;3167338141571416244</title>
<path fill="none" stroke="black" d="M325.52,-381.76C327.87,-389.85 330.88,-400.23 334.2,-411.68"/>
<polygon fill="black" stroke="black" points="330.91,-412.9 337.06,-421.53 337.63,-410.95 330.91,-412.9"/>
</g>
<!-- 2653829229617308176 -->
<g id="node23" class="node">
<title>2653829229617308176</title>
<polygon fill="none" stroke="black" points="642.51,-381.48 588.51,-381.48 588.51,-345.48 642.51,-345.48 642.51,-381.48"/>
<text text-anchor="middle" x="615.51" y="-359.78" font-family="Times-Roman" font-size="14.00">(1, 0)</text>
</g>
<!-- &#45;5923376054362802618&#45;&gt;2653829229617308176 -->
<g id="edge21" class="edge">
<title>&#45;5923376054362802618&#45;&gt;2653829229617308176</title>
<path fill="none" stroke="black" d="M624.46,-308.69C622.92,-317.95 621.41,-327.01 620.08,-334.97"/>
<polygon fill="black" stroke="black" points="616.59,-334.63 618.41,-345.07 623.5,-335.78 616.59,-334.63"/>
</g>
<!-- 2653829229617308176&#45;&gt;3167338141571416244 -->
<g id="edge26" class="edge">
<title>2653829229617308176&#45;&gt;3167338141571416244</title>
<path fill="none" stroke="black" d="M588.39,-381.76C558.67,-400.69 509.26,-432.15 464.6,-460.6"/>
<polygon fill="black" stroke="black" points="462.59,-457.73 456.03,-466.05 466.35,-463.63 462.59,-457.73"/>
</g>
<!-- &#45;2239244799355388190 -->
<g id="node25" class="node">
<title>&#45;2239244799355388190</title>
<polygon fill="none" stroke="black" points="451.51,-381.48 397.51,-381.48 397.51,-345.48 451.51,-345.48 451.51,-381.48"/>
<text text-anchor="middle" x="424.51" y="-359.78" font-family="Times-Roman" font-size="14.00">(1, 1)</text>
</g>
<!-- &#45;1684056881923910010&#45;&gt;&#45;2239244799355388190 -->
<g id="edge23" class="edge">
<title>&#45;1684056881923910010&#45;&gt;&#45;2239244799355388190</title>
<path fill="none" stroke="black" d="M433.01,-308.69C431.55,-317.95 430.11,-327.01 428.86,-334.97"/>
<polygon fill="black" stroke="black" points="425.36,-334.65 427.26,-345.07 432.28,-335.74 425.36,-334.65"/>
</g>
<!-- &#45;2239244799355388190&#45;&gt;3167338141571416244 -->
<g id="edge27" class="edge">
<title>&#45;2239244799355388190&#45;&gt;3167338141571416244</title>
<path fill="none" stroke="black" d="M418.19,-381.76C415.03,-390.39 410.92,-401.64 406.39,-414.02"/>
<polygon fill="black" stroke="black" points="403.01,-413.08 402.86,-423.68 409.58,-415.49 403.01,-413.08"/>
</g>
<!-- 3167338141571416244&#45;&gt;&#45;4296503294335477722 -->
<g id="edge25" class="edge">
<title>3167338141571416244&#45;&gt;&#45;4296503294335477722</title>
<path fill="none" stroke="black" d="M366.51,-630.85C366.51,-640.02 366.51,-648.65 366.51,-656.17"/>
<polygon fill="black" stroke="black" points="363.01,-656.33 366.51,-666.33 370.01,-656.33 363.01,-656.33"/>
</g>
</g>
</svg>
